<svg xmlns="http://www.w3.org/2000/svg" viewBox="0 0 48 48" width="80" height="80">
  <!-- pin body -->
  <path fill="#34A853" d="M24 4C16.27 4 10 10.27 10 18c0 10.5 14 26 14 26s14-15.5 14-26c0-7.73-6.27-14-14-14z"/>
  <path fill="#4285F4" d="M24 4C16.27 4 10 10.27 10 18c0 3.13.92 6.05 2.5 8.51L24 4z"/>
  <path fill="#EA4335" d="M24 4l-11.5 22.51C14.9 30.5 19.18 33 24 33c4.83 0 9.1-2.5 11.5-6.49L24 4z"/>
  <path fill="#FBBC05" d="M35.5 26.51C37.08 24.05 38 21.13 38 18c0-7.73-6.27-14-14-14L35.5 26.51z"/>
  <!-- white inner circle -->
  <circle cx="24" cy="18" r="6" fill="white"/>
  <!-- G letter -->
  <text x="21" y="22" font-family="Arial" font-size="9" font-weight="bold" fill="#4285F4">G</text>
</svg>
