<svg xmlns="http://www.w3.org/2000/svg" viewBox="0 0 48 48" width="80" height="80">
  <circle cx="24" cy="24" r="22" fill="#25D366"/>
  <path fill="white" d="M34.6 13.3C32 10.7 28.6 9.2 24.9 9.2c-7.6 0-13.8 6.2-13.8 13.8 0 2.4.6 4.8 1.8 6.9L11 38.8l9.2-2.4c2 1.1 4.2 1.7 6.5 1.7h.1c7.6 0 13.8-6.2 13.8-13.8-.1-3.7-1.5-7.1-4-9.7v-.3zm-9.7 21.2h-.1c-2.1 0-4.1-.6-5.9-1.6l-.4-.2-4.4 1.1 1.2-4.3-.3-.4c-1.1-1.8-1.7-3.9-1.7-6 0-6.3 5.1-11.4 11.4-11.4 3.1 0 5.9 1.2 8.1 3.3 2.1 2.1 3.3 5 3.3 8-.1 6.3-5.2 11.5-11.2 11.5zm6.2-8.6c-.3-.2-1.9-.9-2.2-1-.3-.1-.5-.2-.7.2-.2.3-.8 1-.9 1.2-.2.2-.3.2-.6 0-.3-.2-1.4-.5-2.6-1.6-1-.9-1.6-2-1.8-2.3-.2-.3 0-.5.1-.7.1-.1.3-.4.5-.5.1-.2.2-.3.3-.5.1-.2 0-.4 0-.5-.1-.2-.7-1.6-1-2.2-.2-.6-.5-.5-.7-.5h-.6c-.2 0-.5.1-.8.4-.3.3-1 1-1 2.4s1 2.7 1.2 2.9c.2.2 2 3 4.7 4.2.7.3 1.2.4 1.6.6.7.2 1.3.2 1.8.1.5-.1 1.6-.7 1.9-1.3.2-.6.2-1.1.1-1.3-.1-.1-.3-.2-.6-.4z"/>
</svg>
